# Blender v2.79 (sub 0) OBJ File: ''
# www.blender.org
mtllib cutter_handle.mtl
o Cylinder
v -0.004206 -0.141620 -0.451477
v -0.004206 0.096993 -0.451477
v 0.082475 -0.141620 -0.445705
v 0.082475 0.096993 -0.445705
v 0.385914 -0.141620 0.225863
v 0.385914 0.096993 0.225863
v 0.332957 -0.141620 0.294728
v 0.332957 0.096993 0.294728
v 0.267582 -0.141620 0.351940
v 0.267582 0.096993 0.351940
v 0.192302 -0.141620 0.395298
v 0.192302 0.096993 0.395298
v 0.110010 -0.141620 0.423137
v 0.110010 0.096993 0.423137
v 0.023868 -0.141620 0.434386
v 0.023868 0.096993 0.434386
v -0.062813 -0.141620 0.428614
v -0.062813 0.096993 0.428614
v -0.146703 -0.141620 0.406042
v -0.146703 0.096993 0.406042
v -0.224577 -0.141620 0.367537
v -0.224577 0.096993 0.367537
v -0.293443 -0.141620 0.314580
v -0.293443 0.096993 0.314580
v -0.350655 -0.141620 0.249205
v -0.350655 0.096993 0.249205
v -0.394013 -0.141620 0.173925
v -0.394013 0.096993 0.173925
v -0.421851 -0.141620 0.091633
v -0.421851 0.096993 0.091633
v -0.433100 -0.141620 0.005491
v -0.433100 0.096993 0.005491
v -0.427328 -0.141620 -0.081190
v -0.427328 0.096993 -0.081190
v -0.404756 -0.141620 -0.165080
v -0.404756 0.096993 -0.165080
v -0.366251 -0.141620 -0.242954
v -0.366251 0.096993 -0.242954
v -0.313294 -0.141620 -0.311820
v -0.313294 0.096993 -0.311820
v -0.247920 -0.141620 -0.369031
v -0.247920 0.096993 -0.369031
v -0.172640 -0.141620 -0.412389
v -0.172640 0.096993 -0.412389
v -0.090347 -0.141620 -0.440228
v -0.090347 0.096993 -0.440228
v 2.299089 0.147582 -0.483882
v 2.299089 0.147582 -1.445114
v 2.964618 0.147582 -1.445114
v 2.964618 0.147582 -0.483881
v 2.299088 -0.147582 -0.483882
v 2.299089 -0.147582 -1.445114
v 2.964618 -0.147582 -1.445114
v 2.964618 -0.147582 -0.483881
v 2.175371 0.147582 -0.465061
v 2.043915 0.147582 -1.417263
v 2.175371 -0.147582 -0.465062
v 2.043915 -0.147582 -1.417263
v 2.060883 0.147582 -0.444619
v 1.812932 0.147582 -1.373322
v 2.060883 -0.147582 -0.444619
v 1.812932 -0.147582 -1.373322
v 1.954213 0.147582 -0.415110
v 1.588551 0.147582 -1.304075
v 1.954213 -0.147582 -0.415110
v 1.588551 -0.147582 -1.304075
v 3.069673 0.197726 -0.480515
v 3.069674 0.197726 -1.443147
v 2.964618 0.236925 -1.581093
v 2.964618 0.236925 0.086445
v 2.964618 -0.236925 -1.581093
v 2.964618 -0.236925 0.086445
v 3.069673 0.236925 -1.581093
v 3.069673 0.236925 0.086445
v 3.069673 -0.236925 -1.581093
v 3.069673 -0.236925 0.086445
v 2.952668 0.236925 -1.604658
v 2.952668 -0.236925 -1.604658
v 3.048047 0.236925 -1.648696
v 3.048047 -0.236925 -1.648696
v 2.398089 0.236924 -2.693912
v 2.398089 -0.236926 -2.693912
v 2.493468 0.236925 -2.737950
v 2.493468 -0.236926 -2.737950
v 3.069674 -0.197726 -1.443147
v 3.069673 -0.197726 -0.480515
v 3.106768 0.197726 -0.480515
v 3.106768 0.197726 -1.443147
v 3.106768 -0.197726 -1.443147
v 3.106768 -0.197726 -0.480515
v 3.106768 0.245575 -0.480515
v 3.106768 0.245575 -1.443147
v 3.106768 0.197726 -1.499011
v 3.106768 -0.197726 -1.499011
v 3.106767 0.197726 -0.433239
v 3.106767 -0.197726 -0.433239
v 3.106768 -0.242394 -1.443147
v 3.106768 -0.242394 -0.480515
v 3.106768 0.245575 -0.480515
v 3.106768 0.245575 -1.443147
v 3.106768 0.197726 -1.499011
v 3.106768 -0.197726 -1.499011
v 3.106767 0.197726 -0.433239
v 3.106767 -0.197726 -0.433239
v 3.106768 -0.242394 -1.443147
v 3.106768 -0.242394 -0.480515
v 6.291064 0.245575 -0.480515
v 6.291064 0.245575 -1.443147
v 6.291063 0.197726 -1.499011
v 6.291063 -0.197726 -1.499011
v 6.291064 0.197726 -0.433239
v 6.291065 -0.197726 -0.433239
v 6.291064 -0.242394 -1.443147
v 6.291064 -0.242394 -0.480515
v 6.291064 0.245575 -0.480515
v 6.291064 0.245575 -1.443147
v 6.291063 0.197726 -1.499011
v 6.291063 -0.197726 -1.499011
v 6.291064 0.197726 -0.433239
v 6.291065 -0.197726 -0.433239
v 6.291064 -0.242394 -1.443147
v 6.291064 -0.242394 -0.480515
v -0.004206 -0.141620 -0.451477
v 0.082475 -0.141620 -0.445705
v 0.082475 -0.141620 -0.445705
v 0.082475 0.096993 -0.445705
v 0.082475 0.096993 -0.445705
v -0.004206 0.096993 -0.451477
v 0.385914 0.096993 0.225863
v 0.385914 0.096993 0.225863
v 0.385914 -0.141620 0.225863
v 0.385914 -0.141620 0.225863
v 0.332957 -0.141620 0.294728
v 0.332957 0.096993 0.294728
v 0.267582 -0.141620 0.351940
v 0.267582 0.096993 0.351940
v 0.192302 -0.141620 0.395298
v 0.192302 0.096993 0.395298
v 0.110010 -0.141620 0.423137
v 0.110010 0.096993 0.423137
v 0.023868 -0.141620 0.434386
v 0.023868 0.096993 0.434386
v -0.062813 -0.141620 0.428614
v -0.062813 0.096993 0.428614
v -0.146703 -0.141620 0.406042
v -0.146703 0.096993 0.406042
v -0.224577 -0.141620 0.367537
v -0.224577 0.096993 0.367537
v -0.293443 -0.141620 0.314580
v -0.293443 0.096993 0.314580
v -0.350655 -0.141620 0.249205
v -0.350655 0.096993 0.249205
v -0.394013 -0.141620 0.173925
v -0.394013 0.096993 0.173925
v -0.421851 -0.141620 0.091633
v -0.421851 0.096993 0.091633
v -0.433100 -0.141620 0.005491
v -0.433100 0.096993 0.005491
v -0.427328 -0.141620 -0.081190
v -0.427328 0.096993 -0.081190
v -0.404756 -0.141620 -0.165080
v -0.404756 0.096993 -0.165080
v -0.366251 -0.141620 -0.242954
v -0.366251 0.096993 -0.242954
v -0.313294 -0.141620 -0.311820
v -0.313294 0.096993 -0.311820
v -0.247920 -0.141620 -0.369031
v -0.247920 0.096993 -0.369031
v -0.172640 -0.141620 -0.412389
v -0.172640 0.096993 -0.412389
v -0.090347 -0.141620 -0.440228
v -0.090347 0.096993 -0.440228
v 2.299089 0.147582 -0.483882
v 2.964618 0.147582 -0.483881
v 2.964618 0.147582 -0.483881
v 2.299089 0.147582 -1.445114
v 2.964618 0.147582 -1.445114
v 2.964618 0.147582 -1.445114
v 2.964618 -0.147582 -1.445114
v 2.964618 -0.147582 -1.445114
v 2.964618 -0.147582 -0.483881
v 2.964618 -0.147582 -0.483881
v 2.299088 -0.147582 -0.483882
v 2.299089 -0.147582 -1.445114
v 2.175371 0.147582 -0.465061
v 2.043915 0.147582 -1.417263
v 2.043915 -0.147582 -1.417263
v 2.175371 -0.147582 -0.465062
v 1.812932 0.147582 -1.373322
v 1.812932 -0.147582 -1.373322
v 2.060883 0.147582 -0.444619
v 2.060883 -0.147582 -0.444619
v 1.588551 0.147582 -1.304075
v 1.588551 -0.147582 -1.304075
v 1.954213 0.147582 -0.415110
v 1.954213 -0.147582 -0.415110
v 3.069673 0.197726 -0.480515
v 3.069673 0.197726 -0.480515
v 3.069673 -0.197726 -0.480515
v 3.069673 -0.197726 -0.480515
v 3.069674 0.197726 -1.443147
v 3.069674 0.197726 -1.443147
v 3.069674 -0.197726 -1.443147
v 3.069674 -0.197726 -1.443147
v 2.964618 0.236925 -1.581093
v 2.964618 0.236925 0.086445
v 2.964618 0.236925 0.086445
v 2.964618 -0.236925 0.086445
v 2.964618 -0.236925 0.086445
v 2.964618 -0.236925 -1.581093
v 3.069673 0.236925 -1.581093
v 3.069673 0.236925 0.086445
v 3.069673 0.236925 0.086445
v 3.069673 -0.236925 0.086445
v 3.069673 -0.236925 0.086445
v 3.069673 -0.236925 -1.581093
v 3.048047 -0.236925 -1.648696
v 2.952668 -0.236925 -1.604658
v 3.048047 0.236925 -1.648696
v 2.952668 0.236925 -1.604658
v 2.398089 0.236924 -2.693912
v 2.398089 0.236924 -2.693912
v 2.398089 -0.236926 -2.693912
v 2.398089 -0.236926 -2.693912
v 2.493468 0.236925 -2.737950
v 2.493468 0.236925 -2.737950
v 2.493468 -0.236926 -2.737950
v 2.493468 -0.236926 -2.737950
v 3.106768 0.197726 -0.480515
v 3.106768 0.197726 -0.480515
v 3.106768 0.197726 -0.480515
v 3.106768 -0.197726 -0.480515
v 3.106768 -0.197726 -0.480515
v 3.106768 -0.197726 -0.480515
v 3.106768 0.197726 -1.443147
v 3.106768 0.197726 -1.443147
v 3.106768 0.197726 -1.443147
v 3.106768 -0.197726 -1.443147
v 3.106768 -0.197726 -1.443147
v 3.106768 -0.197726 -1.443147
v 3.106768 0.245575 -1.443147
v 3.106768 0.245575 -1.443147
v 3.106768 0.245575 -0.480515
v 3.106768 0.245575 -0.480515
v 3.106768 0.197726 -1.499011
v 3.106768 0.197726 -1.499011
v 3.106768 -0.197726 -1.499011
v 3.106768 -0.197726 -1.499011
v 3.106767 0.197726 -0.433239
v 3.106767 0.197726 -0.433239
v 3.106767 -0.197726 -0.433239
v 3.106767 -0.197726 -0.433239
v 3.106768 -0.242394 -1.443147
v 3.106768 -0.242394 -1.443147
v 3.106768 -0.242394 -0.480515
v 3.106768 -0.242394 -0.480515
v 3.106768 0.245575 -1.443147
v 3.106768 0.245575 -1.443147
v 3.106768 0.245575 -1.443147
v 3.106768 0.245575 -0.480515
v 3.106768 0.245575 -0.480515
v 3.106768 0.245575 -0.480515
v 3.106768 0.197726 -1.499011
v 3.106768 0.197726 -1.499011
v 3.106768 -0.197726 -1.499011
v 3.106768 -0.197726 -1.499011
v 3.106767 0.197726 -0.433239
v 3.106767 0.197726 -0.433239
v 3.106767 -0.197726 -0.433239
v 3.106767 -0.197726 -0.433239
v 3.106768 -0.242394 -1.443147
v 3.106768 -0.242394 -1.443147
v 3.106768 -0.242394 -1.443147
v 3.106768 -0.242394 -0.480515
v 3.106768 -0.242394 -0.480515
v 3.106768 -0.242394 -0.480515
v 6.291064 0.245575 -1.443147
v 6.291064 0.245575 -1.443147
v 6.291064 0.245575 -1.443147
v 6.291064 0.245575 -0.480515
v 6.291064 0.245575 -0.480515
v 6.291064 0.245575 -0.480515
v 6.291063 0.197726 -1.499011
v 6.291063 0.197726 -1.499011
v 6.291063 -0.197726 -1.499011
v 6.291063 -0.197726 -1.499011
v 6.291064 0.197726 -0.433239
v 6.291064 0.197726 -0.433239
v 6.291065 -0.197726 -0.433239
v 6.291065 -0.197726 -0.433239
v 6.291064 -0.242394 -1.443147
v 6.291064 -0.242394 -1.443147
v 6.291064 -0.242394 -1.443147
v 6.291064 -0.242394 -0.480515
v 6.291064 -0.242394 -0.480515
v 6.291064 -0.242394 -0.480515
v 6.291064 0.245575 -1.443147
v 6.291064 0.245575 -1.443147
v 6.291064 0.245575 -0.480515
v 6.291064 0.245575 -0.480515
v 6.291063 0.197726 -1.499011
v 6.291063 0.197726 -1.499011
v 6.291063 -0.197726 -1.499011
v 6.291063 -0.197726 -1.499011
v 6.291064 0.197726 -0.433239
v 6.291064 0.197726 -0.433239
v 6.291065 -0.197726 -0.433239
v 6.291065 -0.197726 -0.433239
v 6.291064 -0.242394 -1.443147
v 6.291064 -0.242394 -1.443147
v 6.291064 -0.242394 -0.480515
v 6.291064 -0.242394 -0.480515
vt 0.631411 0.963910
vt 0.512351 0.963921
vt 0.512354 0.954666
vt 0.631414 0.954656
vt 0.485512 0.345152
vt 0.485512 0.442414
vt 0.477101 0.442414
vt 0.477101 0.345152
vt 0.763569 0.721327
vt 0.763569 0.624066
vt 0.772898 0.624059
vt 0.772898 0.721321
vt 0.783415 0.624055
vt 0.783415 0.721316
vt 0.794717 0.624052
vt 0.794717 0.721314
vt 0.806369 0.624052
vt 0.806369 0.721313
vt 0.817923 0.624053
vt 0.817923 0.721315
vt 0.828936 0.624056
vt 0.828936 0.721318
vt 0.838984 0.624062
vt 0.838984 0.721323
vt 0.847682 0.624069
vt 0.847682 0.721330
vt 0.866135 0.097262
vt 0.866135 0.000000
vt 0.875490 0.000000
vt 0.875490 0.097262
vt 0.886026 0.000000
vt 0.886026 0.097262
vt 0.897338 0.000000
vt 0.897338 0.097262
vt 0.908993 0.000000
vt 0.908993 0.097262
vt 0.920541 0.000000
vt 0.920541 0.097262
vt 0.931539 0.000000
vt 0.931539 0.097262
vt 0.941566 0.000000
vt 0.941566 0.097262
vt 0.950234 0.000000
vt 0.950234 0.097262
vt 0.631432 0.999990
vt 0.512371 1.000000
vt 0.512362 0.991837
vt 0.631422 0.991827
vt 0.512355 0.982870
vt 0.631416 0.982860
vt 0.512351 0.973444
vt 0.631412 0.973433
vt 0.292121 0.415752
vt 0.287856 0.406879
vt 0.285791 0.397497
vt 0.286007 0.387966
vt 0.288495 0.378652
vt 0.293159 0.369914
vt 0.299821 0.362087
vt 0.308224 0.355472
vt 0.318046 0.350323
vt 0.328908 0.346839
vt 0.340394 0.345152
vt 0.352062 0.345329
vt 0.363464 0.347361
vt 0.374161 0.351172
vt 0.383743 0.356614
vt 0.391841 0.363478
vt 0.398144 0.371501
vt 0.402409 0.380374
vt 0.404474 0.389756
vt 0.404258 0.399288
vt 0.401770 0.408601
vt 0.397106 0.417340
vt 0.390444 0.425166
vt 0.044363 0.692393
vt 0.048629 0.683519
vt 0.146950 0.674100
vt 0.153613 0.681927
vt 0.158278 0.690666
vt 0.160767 0.699980
vt 0.160983 0.709511
vt 0.158919 0.718894
vt 0.154654 0.727768
vt 0.148352 0.735792
vt 0.140254 0.742657
vt 0.130673 0.748099
vt 0.119976 0.751910
vt 0.108574 0.753943
vt 0.096906 0.754120
vt 0.085420 0.752434
vt 0.074558 0.748950
vt 0.064736 0.743802
vt 0.056332 0.737187
vt 0.049670 0.729360
vt 0.045005 0.720621
vt 0.042516 0.711307
vt 0.042300 0.701776
vt 0.377396 0.649036
vt 0.404474 0.718637
vt 0.281413 0.750583
vt 0.254335 0.680982
vt 0.133910 0.450422
vt 0.010847 0.418479
vt 0.037920 0.348874
vt 0.160983 0.380817
vt 0.247519 0.653371
vt 0.374772 0.635473
vt 0.486965 0.695968
vt 0.486978 0.624064
vt 0.634256 0.624052
vt 0.634243 0.695956
vt 0.531545 0.377419
vt 0.486965 0.315023
vt 0.723402 0.315023
vt 0.678823 0.377419
vt 0.852715 0.347457
vt 0.852722 0.274624
vt 1.000000 0.274624
vt 0.999993 0.347456
vt 0.634243 0.724060
vt 0.634247 0.749861
vt 0.486969 0.749873
vt 0.486965 0.724073
vt 0.131287 0.463986
vt 0.004033 0.446092
vt 0.999995 0.361148
vt 0.852717 0.361149
vt 0.634256 0.775434
vt 0.486978 0.775447
vt 0.243747 0.627755
vt 0.372731 0.622820
vt 0.129247 0.476639
vt 0.000262 0.471710
vt 0.999997 0.373844
vt 0.852719 0.373845
vt 0.243482 0.601988
vt 0.372169 0.610684
vt 0.128686 0.488776
vt 0.000000 0.497478
vt 1.000000 0.385758
vt 0.852722 0.385759
vt 0.238154 0.348874
vt 0.243060 0.348875
vt 0.243060 0.510067
vt 0.238154 0.510066
vt 0.477100 0.538301
vt 0.463027 0.538300
vt 0.463027 0.345152
vt 0.477101 0.345153
vt 0.723402 0.497458
vt 0.678823 0.482582
vt 0.486965 0.497458
vt 0.531545 0.482582
vt 0.723402 0.181879
vt 0.703843 0.166833
vt 0.703843 0.061839
vt 0.723402 0.000000
vt 0.219534 0.662899
vt 0.205706 0.665201
vt 0.160983 0.485895
vt 0.174811 0.483593
vt 0.418302 0.526762
vt 0.404474 0.524460
vt 0.449199 0.345152
vt 0.463027 0.347454
vt 0.419243 0.529558
vt 0.405508 0.532203
vt 0.723402 0.189514
vt 0.723402 0.315023
vt 0.486965 0.315022
vt 0.486965 0.189514
vt 0.486965 0.181879
vt 0.162017 0.478151
vt 0.175752 0.480797
vt 0.723402 0.500139
vt 0.486965 0.500139
vt 0.219534 0.348878
vt 0.233184 0.348874
vt 0.233184 0.542021
vt 0.219534 0.542026
vt 0.205798 0.348874
vt 0.219533 0.351519
vt 0.723402 0.624052
vt 0.486965 0.624052
vt 0.463027 0.658835
vt 0.449291 0.661480
vt 0.506524 0.166833
vt 0.506524 0.061839
vt 0.486965 0.000000
vt 0.858654 0.019504
vt 0.858654 0.180696
vt 0.729734 0.180696
vt 0.729734 0.019504
vt 0.238154 0.510067
vt 0.243137 0.510067
vt 0.243137 0.615703
vt 0.238154 0.615703
vt 0.482084 0.548051
vt 0.477101 0.548051
vt 0.477101 0.442414
vt 0.482084 0.442414
vt 0.238154 0.510066
vt 0.233184 0.510066
vt 0.233184 0.348874
vt 0.238154 0.348875
vt 0.729734 0.019504
vt 0.729734 0.000000
vt 0.858654 0.000000
vt 0.858654 0.019504
vt 0.858654 0.180696
vt 0.866135 0.019504
vt 0.866135 0.180696
vt 0.729734 0.180696
vt 0.723402 0.180696
vt 0.723402 0.019504
vt 0.858654 0.198903
vt 0.729734 0.198903
vt 0.000000 0.000000
vt 0.000000 0.000000
vt 0.000000 0.000000
vt 0.000000 0.000000
vt 0.000000 0.000000
vt 0.000000 0.000000
vt 0.000000 0.000000
vt 0.000000 0.000000
vt 0.000000 0.000000
vt 0.000000 0.000000
vt 0.000000 0.000000
vt 0.000000 0.000000
vt 0.000000 0.000000
vt 0.000000 0.000000
vt 0.000000 0.000000
vt 0.000000 0.000000
vt 0.000000 0.000000
vt 0.000000 0.000000
vt 0.000000 0.000000
vt 0.000000 0.000000
vt 0.000000 0.000000
vt 0.000000 0.000000
vt 0.000000 0.000000
vt 0.000000 0.000000
vt 0.000000 0.000000
vt 0.000000 0.000000
vt 0.000000 0.000000
vt 0.000000 0.000000
vt 0.000000 0.000000
vt 0.000000 0.000000
vt 0.000000 0.000000
vt 0.000000 0.000000
vt 0.723402 0.274624
vt 0.852715 0.274627
vt 0.852715 0.624052
vt 0.723402 0.624048
vt 0.486965 0.345102
vt 0.464666 0.344033
vt 0.464666 0.000000
vt 0.486965 0.001070
vt 0.000000 0.000400
vt 0.023868 0.000013
vt 0.023868 0.348487
vt 0.000000 0.348874
vt 0.221187 0.000000
vt 0.221187 0.348474
vt 0.267347 0.344073
vt 0.267347 0.000041
vt 0.243482 0.000384
vt 0.243482 0.348858
vt 0.763569 0.973490
vt 0.634256 0.973490
vt 0.634256 0.624052
vt 0.763569 0.624052
vt 0.243482 0.345152
vt 0.243482 0.001120
vt 0.000000 0.000000
vt 0.000000 0.000000
vt 0.000000 0.000000
vt 0.000000 0.000000
vt 0.000000 0.000000
vt 0.000000 0.000000
vt 0.000000 0.000000
vt 0.000000 0.000000
vt 0.000000 0.000000
vt 0.000000 0.000000
vt 0.000000 0.000000
vt 0.000000 0.000000
vt 0.000000 0.000000
vt 0.000000 0.000000
vt 0.000000 0.000000
vt 0.000000 0.000000
vt 0.000000 0.000000
vt 0.000000 0.000000
vt 0.000000 0.000000
vt 0.000000 0.000000
vt 0.000000 0.000000
vt 0.000000 0.000000
vt 0.000000 0.000000
vt 0.000000 0.000000
vt 0.000000 0.000000
vt 0.000000 0.000000
vt 0.000000 0.000000
vt 0.000000 0.000000
vt 0.000000 0.000000
vt 0.000000 0.000000
vt 0.000000 0.000000
vt 0.000000 0.000000
vt 0.988701 0.562608
vt 0.995013 0.582112
vt 0.995013 0.743303
vt 0.988701 0.761511
vt 0.860174 0.761511
vt 0.852715 0.743304
vt 0.852715 0.582112
vt 0.860174 0.562608
vt 0.855775 0.562608
vt 0.974836 0.562607
vt 0.631414 0.954656
vt 0.512354 0.954666
vn -0.0316 0.0000 -0.9995
vn 0.0664 0.0000 -0.9978
vn 0.7927 0.0000 0.6096
vn 0.7291 0.0000 0.6843
vn 0.5816 0.0000 0.8134
vn 0.4118 0.0000 0.9113
vn 0.2261 0.0000 0.9741
vn 0.0316 0.0000 0.9995
vn -0.1639 0.0000 0.9864
vn -0.3532 0.0000 0.9355
vn -0.5289 0.0000 0.8486
vn -0.6843 0.0000 0.7291
vn -0.8134 0.0000 0.5816
vn -0.9113 0.0000 0.4117
vn -0.9741 0.0000 0.2261
vn -0.9995 0.0000 0.0316
vn -0.9864 0.0000 -0.1639
vn -0.9355 0.0000 -0.3532
vn -0.8486 0.0000 -0.5289
vn -0.7291 0.0000 -0.6843
vn -0.5816 0.0000 -0.8134
vn -0.4117 0.0000 -0.9113
vn -0.2261 0.0000 -0.9741
vn -0.0121 0.9999 0.0052
vn 0.0000 1.0000 0.0000
vn -0.0119 0.9999 0.0051
vn 0.0000 -1.0000 0.0000
vn -0.0014 -1.0000 0.0006
vn -0.0543 0.0000 -0.9985
vn 0.0000 0.0000 -1.0000
vn -1.0000 0.0000 0.0000
vn 0.0754 0.0000 0.9971
vn 0.0000 0.0000 1.0000
vn -0.1478 0.0000 -0.9890
vn -0.2412 0.0000 -0.9705
vn 0.1631 0.0000 0.9866
vn -0.3973 0.0000 -0.9177
vn -0.3964 0.0000 -0.9180
vn 0.2214 0.0000 0.9752
vn -0.0134 0.9999 0.0057
vn -0.0131 0.9999 0.0056
vn -0.0015 -1.0000 0.0006
vn -0.0016 -1.0000 0.0007
vn 0.3225 0.0000 0.9466
vn 0.3230 0.0000 0.9464
vn -0.9726 0.0000 0.2325
vn 0.9880 0.0000 -0.1542
vn 1.0000 0.0000 0.0000
vn 0.9248 0.0000 -0.3804
vn 0.8911 0.0000 -0.4537
vn -0.8915 0.0000 0.4530
vn -0.4192 0.0000 -0.9079
vn -0.8911 0.0000 0.4537
vn 0.0000 -0.7810 -0.6245
vn 0.0000 -0.4333 -0.9012
vn 0.0000 0.7028 0.7113
vn 0.0000 0.3799 0.9250
vn 0.0000 -0.3957 0.9183
vn 0.0000 0.4180 -0.9084
vn 0.0000 -0.7269 0.6868
vn 0.0000 0.7595 -0.6505
vn 0.3783 0.0000 0.9257
vn -0.4951 0.0000 -0.8688
usemtl Material
s 1
f 123/1/1 128/2/1 126/3/2 124/4/2
f 131/5/3 129/6/3 134/7/4 133/8/4
f 133/9/4 134/10/4 136/11/5 135/12/5
f 135/12/5 136/11/5 138/13/6 137/14/6
f 137/14/6 138/13/6 140/15/7 139/16/7
f 139/16/7 140/15/7 142/17/8 141/18/8
f 141/18/8 142/17/8 144/19/9 143/20/9
f 143/20/9 144/19/9 146/21/10 145/22/10
f 145/22/10 146/21/10 148/23/11 147/24/11
f 147/24/11 148/23/11 150/25/12 149/26/12
f 149/27/12 150/28/12 152/29/13 151/30/13
f 151/30/13 152/29/13 154/31/14 153/32/14
f 153/32/14 154/31/14 156/33/15 155/34/15
f 155/34/15 156/33/15 158/35/16 157/36/16
f 157/36/16 158/35/16 160/37/17 159/38/17
f 159/38/17 160/37/17 162/39/18 161/40/18
f 161/40/18 162/39/18 164/41/19 163/42/19
f 163/42/19 164/41/19 166/43/20 165/44/20
f 165/45/20 166/46/20 168/47/21 167/48/21
f 167/48/21 168/47/21 170/49/22 169/50/22
f 169/50/22 170/49/22 172/51/23 171/52/23
f 171/52/23 172/51/23 128/2/1 123/1/1
f 127/53/24 2/54/25 46/55/25 44/56/25 42/57/25 40/58/25 38/59/25 36/60/25 34/61/25 32/62/25 30/63/25 28/64/25 26/65/25 24/66/25 22/67/25 20/68/25 18/69/25 16/70/25 14/71/25 12/72/25 10/73/25 8/74/25 130/75/26
f 1/76/27 125/77/28 132/78/28 7/79/27 9/80/27 11/81/27 13/82/27 15/83/27 17/84/27 19/85/27 21/86/27 23/87/27 25/88/27 27/89/27 29/90/27 31/91/27 33/92/27 35/93/27 37/94/27 39/95/27 41/96/27 43/97/27 45/98/27
f 173/99/25 174/100/25 177/101/25 176/102/25
f 51/103/27 52/104/27 180/105/27 182/106/27
f 176/102/25 186/107/25 185/108/25 173/99/25
f 48/109/29 178/110/30 179/111/30 184/112/29
f 181/113/31 208/114/31 206/115/31 175/116/31
f 183/117/32 54/118/33 50/119/33 47/120/32
f 187/121/34 190/122/35 60/123/35 56/124/34
f 51/103/27 57/125/27 58/126/27 52/104/27
f 184/112/29 187/121/34 56/124/34 48/109/29
f 47/120/32 55/127/36 188/128/36 183/117/32
f 190/122/35 194/129/37 64/130/38 60/123/35
f 186/107/25 189/131/25 191/132/25 185/108/25
f 57/125/27 61/133/27 62/134/27 58/126/27
f 55/127/36 59/135/39 192/136/39 188/128/36
f 189/131/25 193/137/40 195/138/41 191/132/25
f 61/133/27 65/139/42 66/140/43 62/134/27
f 59/135/39 63/141/44 196/142/45 192/136/39
f 201/143/30 237/144/30 240/145/30 203/146/30
f 209/147/33 214/148/33 213/149/33 207/150/33
f 175/116/31 206/115/31 205/151/46 49/152/31
f 49/152/31 205/151/46 210/153/46 53/154/31
f 53/154/31 210/153/46 208/114/31 181/113/31
f 216/155/47 204/156/48 199/157/48 215/158/48
f 70/159/25 212/160/25 211/161/25 69/162/25
f 71/163/27 75/164/27 76/165/27 72/166/27
f 71/163/27 78/167/27 80/168/27 75/164/27
f 217/169/49 227/170/50 225/171/50 219/172/49
f 216/155/47 217/169/49 219/172/49 73/173/47
f 211/161/25 79/174/25 77/175/25 69/162/25
f 205/151/46 220/176/51 218/177/51 210/153/46
f 221/178/52 226/179/52 228/180/52 223/181/52
f 79/174/25 83/182/25 222/183/25 77/175/25
f 220/176/51 81/184/53 224/185/53 218/177/51
f 78/167/27 82/186/27 84/187/27 80/168/27
f 73/173/47 202/188/48 204/156/48 216/155/47
f 215/158/48 199/157/48 197/189/48 74/190/48
f 74/190/48 197/189/48 202/188/48 73/173/47
f 235/191/31 238/192/31 90/193/31 87/194/31
f 198/195/25 230/196/25 236/197/25 68/198/25
f 85/199/27 239/200/27 233/201/27 200/202/27
f 86/203/33 232/204/33 229/205/33 67/206/33
f 231/207/31 243/208/31 241/209/31 88/210/31
f 89/211/31 88/210/31 245/212/31 247/213/31
f 241/209/31 245/212/31 88/210/31
f 234/214/31 251/215/31 249/216/31 231/207/31
f 89/211/31 253/217/31 255/218/31 234/214/31
f 231/207/31 249/216/31 243/208/31
f 234/214/31 255/218/31 251/215/31
f 89/211/31 247/213/31 253/217/31
f 252/219/33 256/220/33 275/221/33 270/222/33
f 248/223/33 246/224/33 263/225/33 265/226/33
f 98/227/33 254/228/33 271/229/33 274/230/33
f 93/231/33 242/232/33 258/233/33 264/234/33
f 97/235/33 94/236/33 266/237/33 272/238/33
f 244/239/33 250/240/33 268/241/33 261/242/33
f 92/243/33 91/244/33 260/245/33 257/246/33
f 95/247/33 96/248/33 269/249/33 267/250/33
f 259/251/25 262/252/25 280/253/25 277/254/25
f 273/255/54 102/256/55 285/257/55 292/258/54
f 99/259/56 103/260/57 287/261/57 281/262/56
f 103/260/57 104/263/58 289/264/58 287/261/57
f 102/256/55 101/265/59 283/266/59 285/257/55
f 104/263/58 276/267/60 295/268/60 289/264/58
f 106/269/27 105/270/27 291/271/27 294/272/27
f 101/265/59 100/273/61 278/274/61 283/266/59
f 290/275/33 296/276/33 312/277/33 308/278/33
f 114/279/33 293/280/33 309/281/33 311/282/33
f 284/283/33 279/284/33 298/285/33 302/286/33
f 108/287/33 282/288/33 299/289/33 297/290/33
f 113/291/33 286/292/33 304/293/33 310/294/33
f 107/295/33 288/296/33 306/297/33 300/298/33
f 111/299/33 112/300/33 307/301/33 305/302/33
f 110/303/33 109/304/33 301/305/33 303/306/33
f 115/307/48 119/308/48 120/309/48 122/310/48 121/311/48 118/312/48 117/313/48 116/314/48
f 127/53/24 130/75/26 195/138/41 193/137/40
f 5/315/62 196/142/45 63/141/44 6/316/62
f 125/77/28 66/140/43 65/139/42 132/78/28
f 3/317/63 4/318/63 64/130/38 194/129/37
